{"title":"David Attenborough's The Hunt - S01E03 - Hide &amp; Seek","uid":15208030,"size":408079945,"categoryP":"video","categoryS":"tv_shows","magnet":"?xt=urn:btih:af7daa38b23b95f59d1236f7b2e16c29816df8fb&amp;dn=David+Attenborough%27s+The+Hunt+-+S01E03+-+Hide+%26amp%3B+Seek&amp;tr=udp%3A%2F%2Ftracker.leechers-paradise.org%3A6969&amp;tr=udp%3A%2F%2Fzer0day.ch%3A1337&amp;tr=udp%3A%2F%2Fopen.demonii.com%3A1337&amp;tr=udp%3A%2F%2Ftracker.coppersurfer.tk%3A6969&amp;tr=udp%3A%2F%2Fexodus.desync.com%3A6969","seeders":6,"leechers":2,"uploader":"Bullrout","files":1,"time":1467644512,"description":"David Attenborough's The Hunt - S01E03 - Hide &amp; Seek\r\n\r\nHide and Seek follows tigers, harpy eagles, chimpanzees, army ants and other predators as they rise to the challenge of hunting within the forest - a dense, confusing, three-dimensional world, one in which even finding prey is a maddening task.\r\n\r\nComplete name : David Attenborough's The Hunt - S01E03 - Hide &amp; Seek.mp4\r\nFormat : MPEG-4\r\nFormat profile : Base Media / Version 2\r\nCodec ID : mp42 (mp42/isom/avc1)\r\nFile size : 389 MiB\r\nDuration : 48mn 43s\r\nOverall bit rate mode : Variable\r\nOverall bit rate : 1 117 Kbps\r\n\r\nVideo\r\nID : 2\r\nFormat : AVC\r\nFormat/Info : Advanced Video Codec\r\nFormat profile :   \r\nFormat settings, CABAC : Yes\r\nFormat settings, ReFrames : 3 frames\r\nCodec ID : avc1\r\nCodec ID/Info : Advanced Video Coding\r\nDuration : 48mn 43s\r\nBit rate mode : Variable\r\nBit rate : 985 Kbps\r\nMaximum bit rate : 1 000 Kbps\r\nWidth : 720 pixels\r\nHeight : 404 pixels\r\nDisplay aspect ratio : 16:9\r\nOriginal display aspect ratio : 16:9\r\nFrame rate mode : Constant\r\nFrame rate : 25.000 fps\r\nStandard : PAL\r\nColor space : YUV\r\nChroma subsampling : 4:2:0\r\nBit depth : 8 bits\r\nScan type : Progressive\r\nBits/(Pixel*Frame) : 0.135\r\nStream size : 343 MiB (88%)\r\nWriting library : x264 core 112\r\nColor range : Limited\r\nColor primaries : BT.601 PAL\r\nTransfer characteristics : BT.470 System B, BT.470 System G\r\nMatrix coefficients : BT.601\r\n\r\nAudio\r\nID : 1\r\nFormat : AAC\r\nFormat/Info : Advanced Audio Codec\r\nFormat profile : LC\r\nCodec ID : 40\r\nDuration : 48mn 43s\r\nBit rate mode : Variable\r\nBit rate : 128 Kbps\r\nMaximum bit rate : 576 Kbps\r\nChannel(s) : 2 channels\r\nChannel positions : Front: L R\r\nSampling rate : 48.0 KHz\r\nFrame rate : 46.875 fps (1024 spf)\r\nCompression mode : Lossy\r\nStream size : 44.6 MiB (11%)","torrent":{"xt":"urn:btih:af7daa38b23b95f59d1236f7b2e16c29816df8fb","amp;dn":"David+Attenborough%27s+The+Hunt+-+S01E03+-+Hide+%26amp%3B+Seek","amp;tr":["udp%3A%2F%2Ftracker.leechers-paradise.org%3A6969","udp%3A%2F%2Fzer0day.ch%3A1337","udp%3A%2F%2Fopen.demonii.com%3A1337","udp%3A%2F%2Ftracker.coppersurfer.tk%3A6969","udp%3A%2F%2Fexodus.desync.com%3A6969"],"infoHash":"af7daa38b23b95f59d1236f7b2e16c29816df8fb","infoHashBuffer":{"type":"Buffer","data":[175,125,170,56,178,59,149,245,157,18,54,247,178,225,108,41,129,109,248,251]},"announce":[],"urlList":[]}}